<svg xmlns="http://www.w3.org/2000/svg" width="32.071" height="24.069" viewBox="0 0 32.071 24.069">
  <path id="_4" data-name="4" d="M294.631,88.42l-5.615-5.62-5.463,5.463c-.04.048-.057.108-.1.153a2.062,2.062,0,0,1-2.871,0,1.654,1.654,0,0,1-.1-.153L275.016,82.8l-5.647,5.647a1.995,1.995,0,0,1-2.821-2.82l6.931-6.931c.04-.048.056-.106.1-.151a1.994,1.994,0,0,1,2.82,0l5.615,5.615,5.464-5.464c.04-.048.056-.106.1-.151a2.062,2.062,0,0,1,2.871,0,1.314,1.314,0,0,1,.1.151l6.9,6.9a1.995,1.995,0,0,1-2.818,2.824ZM273.479,91.7c.04-.048.056-.107.1-.151a1.994,1.994,0,0,1,2.82,0l5.615,5.615,5.464-5.464c.04-.048.056-.107.1-.151a2.062,2.062,0,0,1,2.871,0,1.319,1.319,0,0,1,.1.151l6.9,6.9a1.994,1.994,0,1,1-2.82,2.82l-5.613-5.62-5.463,5.463c-.04.048-.057.107-.1.152a2.061,2.061,0,0,1-2.871,0,1.664,1.664,0,0,1-.1-.152L275.016,95.8l-5.647,5.646a1.994,1.994,0,1,1-2.821-2.82Z" transform="translate(-265.964 -77.961)" fill="#fff" fill-rule="evenodd"/>
</svg>
