<svg id="Group_159" data-name="Group 159" xmlns="http://www.w3.org/2000/svg" width="47.053" height="47.053" viewBox="0 0 47.053 47.053">
  <g id="Group_158" data-name="Group 158" transform="translate(0)">
    <g id="Group_156" data-name="Group 156" transform="translate(0.919 16.981)">
      <path id="Path_125" data-name="Path 125" d="M1034.864,455.727l-10.078,10.2v16.746h10.078Z" transform="translate(-1024.786 -453.521)" fill="#7de495"/>
      <path id="Path_126" data-name="Path 126" d="M1066.314,462.086l-6.531,6.492v16.746h6.531Z" transform="translate(-1039.369 -456.171)" fill="#7de495"/>
      <path id="Path_127" data-name="Path 127" d="M1095.116,458.962l-10.058,10v15.063h10.058Z" transform="translate(-1049.901 -454.869)" fill="#7de495"/>
      <path id="Path_128" data-name="Path 128" d="M1042.274,455.727l10.078,10.2v16.746h-10.078Z" transform="translate(-1032.073 -453.521)" fill="#0345f3"/>
      <path id="Path_129" data-name="Path 129" d="M1070.98,461.984l8.212,8.311v14.986h-8.212Z" transform="translate(-1044.035 -456.129)" fill="#cff4d2"/>
      <circle id="Ellipse_32" data-name="Ellipse 32" cx="2.206" cy="2.206" r="2.206" transform="translate(18.208 10.201)" fill="#ffc66c"/>
      <circle id="Ellipse_33" data-name="Ellipse 33" cx="2.206" cy="2.206" r="2.206" transform="translate(32.951 11.942)" fill="#ffc66c"/>
      <circle id="Ellipse_34" data-name="Ellipse 34" cx="2.206" cy="2.206" r="2.206" transform="translate(7.873)" fill="#0345f3"/>
      <circle id="Ellipse_35" data-name="Ellipse 35" cx="2.206" cy="2.206" r="2.206" transform="translate(24.739 3.709)" fill="#0345f3"/>
    </g>
    <g id="Group_157" data-name="Group 157">
      <path id="Path_130" data-name="Path 130" d="M1069.345,442.988a.914.914,0,0,0-.65.269l-7.945,7.945a3.118,3.118,0,0,0-2.923,0l-4-4a3.125,3.125,0,1,0-5.533-.046l-2.3,2.3a3.117,3.117,0,0,0-2.922.008l-6.064-6.064a3.125,3.125,0,1,0-5.52.16L1025.049,450v-26.25a.919.919,0,1,0-1.838,0v45.215a.919.919,0,0,0,.919.919h45.215a.919.919,0,0,0,.919-.919v-25.06A.919.919,0,0,0,1069.345,442.988Zm-8.771,10.974a1.287,1.287,0,1,1-1.287-1.287A1.288,1.288,0,0,1,1060.573,453.963Zm-25.446-8.956a3.12,3.12,0,0,0,.621-.269l6.03,6.031a3.1,3.1,0,0,0-.36,1.453,3.13,3.13,0,0,0,2.205,2.987v12.841h-8.5V445.007Zm10.335,10.2a3.122,3.122,0,0,0,1.838-4.455l2.28-2.28a3.086,3.086,0,0,0,.576.243v19.332h-4.694V455.207Zm5.612-10.764a1.286,1.286,0,1,1-1.287,1.286A1.288,1.288,0,0,1,1051.075,444.443Zm-5.245,7.778a1.286,1.286,0,1,1-1.286-1.287A1.288,1.288,0,0,1,1045.83,452.221Zm-11.622-11.488a1.287,1.287,0,1,1-1.286,1.287A1.288,1.288,0,0,1,1034.208,440.733Zm-9.159,11.868,7.779-7.779a3.052,3.052,0,0,0,.461.184v23.042h-8.24Zm26.945,15.446V448.716a3.118,3.118,0,0,0,.529-.219l4,4a3.123,3.123,0,0,0,1.841,4.449v5.172a.919.919,0,0,0,1.838,0v-5.172a3.123,3.123,0,0,0,1.843-4.446l6.377-6.377v21.922Z" transform="translate(-1023.211 -422.833)" fill="#fff"/>
      <path id="Path_131" data-name="Path 131" d="M1084.4,494.362a.919.919,0,1,0,.65.269A.924.924,0,0,0,1084.4,494.362Z" transform="translate(-1048.326 -452.639)" fill="#fff"/>
      <path id="Path_132" data-name="Path 132" d="M1034.388,435.313l3.959-3.959,9.7,9.7a.919.919,0,0,0,1.3,0l5.578-5.578,7.868,7.868a.918.918,0,0,0,1.3,0l7.6-7.6a.919.919,0,0,0,1.793.083l.75-2.8a.919.919,0,0,0-1.126-1.125l-2.8.75a.918.918,0,0,0,.082,1.792l-6.951,6.951-7.868-7.868a.92.92,0,0,0-1.3,0L1048.7,439.1l-9.7-9.7a.918.918,0,0,0-1.3,0l-4.609,4.609a.919.919,0,0,0,1.3,1.3Z" transform="translate(-1027.215 -425.459)" fill="#fff"/>
      <path id="Path_133" data-name="Path 133" d="M1030.06,442.554a.918.918,0,1,0-.65-.27A.921.921,0,0,0,1030.06,442.554Z" transform="translate(-1025.682 -430.284)" fill="#ffd664"/>
    </g>
  </g>
</svg>
