<svg id="Group_167" data-name="Group 167" xmlns="http://www.w3.org/2000/svg" width="42.266" height="42.265" viewBox="0 0 42.266 42.265">
  <g id="Group_166" data-name="Group 166">
    <g id="Group_164" data-name="Group 164" transform="translate(0.826 0.825)">
      <path id="Path_134" data-name="Path 134" d="M1231.1,547.8h-5.46V514.284a2.642,2.642,0,0,1,2.641-2.642h32.03a2.642,2.642,0,0,1,2.642,2.642V547.8Z" transform="translate(-1225.644 -511.642)" fill="#fff"/>
      <path id="Path_135" data-name="Path 135" d="M1260.315,511.642h-32.03a2.642,2.642,0,0,0-2.641,2.642v3.3h37.313v-3.3A2.642,2.642,0,0,0,1260.315,511.642Z" transform="translate(-1225.644 -511.642)" fill="#7de495"/>
      <g id="Group_162" data-name="Group 162" transform="translate(0.834 5.944)">
        <path id="Path_136" data-name="Path 136" d="M1227.3,523.454h36.066" transform="translate(-1227.302 -523.454)" fill="#231f20"/>
      </g>
      <path id="Path_137" data-name="Path 137" d="M1233.19,531h7.264v7.265h-7.264Z" transform="translate(-1229.393 -521.26)" fill="#0345f3"/>
      <path id="Path_138" data-name="Path 138" d="M1255.5,531h7.265v7.265H1255.5Z" transform="translate(-1240.478 -521.26)" fill="#ffd664"/>
      <path id="Path_139" data-name="Path 139" d="M1277.813,531h7.264v7.265h-7.264Z" transform="translate(-1251.562 -521.26)" fill="#55c595"/>
      <path id="Path_140" data-name="Path 140" d="M1233.19,553.312h7.264v7.264h-7.264Z" transform="translate(-1229.393 -532.344)" fill="#55c595"/>
      <path id="Path_141" data-name="Path 141" d="M1255.5,553.312h7.265v7.264H1255.5Z" transform="translate(-1240.478 -532.344)" fill="#0345f3"/>
      <path id="Path_142" data-name="Path 142" d="M1277.813,553.312h7.264v7.264h-7.264Z" transform="translate(-1251.562 -532.344)" fill="#ffd664"/>
      <g id="Group_163" data-name="Group 163" transform="translate(24.303 24.105)">
        <path id="Path_143" data-name="Path 143" d="M1288.541,567.8a6.481,6.481,0,0,0-.135-1.317l1.848-1.067-2.014-3.488L1286.391,563a6.443,6.443,0,0,0-2.28-1.318v-2.133h-4.027v2.133A6.441,6.441,0,0,0,1277.8,563l-1.849-1.068-2.014,3.488,1.848,1.067a6.5,6.5,0,0,0,0,2.634l-1.848,1.067,2.014,3.487,1.849-1.067a6.431,6.431,0,0,0,2.28,1.318v2.134h4.027v-2.134a6.433,6.433,0,0,0,2.28-1.318l1.849,1.067,2.014-3.487-1.848-1.067A6.5,6.5,0,0,0,1288.541,567.8Z" transform="translate(-1273.942 -559.547)" fill="#fff"/>
        <path id="Path_144" data-name="Path 144" d="M1288.541,567.8a6.481,6.481,0,0,0-.135-1.317l1.848-1.067-2.014-3.488L1286.391,563a6.443,6.443,0,0,0-2.28-1.318v-2.133h-4.027v2.133A6.441,6.441,0,0,0,1277.8,563l-1.849-1.068-2.014,3.488,1.848,1.067a6.5,6.5,0,0,0,0,2.634l-1.848,1.067,2.014,3.487,1.849-1.067a6.431,6.431,0,0,0,2.28,1.318v2.134h4.027v-2.134a6.433,6.433,0,0,0,2.28-1.318l1.849,1.067,2.014-3.487-1.848-1.067A6.5,6.5,0,0,0,1288.541,567.8Z" transform="translate(-1273.942 -559.547)" fill="#ffd664"/>
        <circle id="Ellipse_37" data-name="Ellipse 37" cx="2.893" cy="2.893" r="2.893" transform="translate(5.263 5.362)" fill="#0345f3"/>
      </g>
    </g>
    <g id="Group_165" data-name="Group 165">
      <path id="Path_145" data-name="Path 145" d="M1273.315,515.908h-16.525a.826.826,0,1,0,0,1.651h16.525a.826.826,0,0,0,0-1.651Z" transform="translate(-1239.882 -512.936)" fill="#fff"/>
      <path id="Path_146" data-name="Path 146" d="M1239,515.908a.826.826,0,1,0,.583.242A.829.829,0,0,0,1239,515.908Z" transform="translate(-1231.042 -512.936)" fill="#fff"/>
      <path id="Path_147" data-name="Path 147" d="M1232.967,515.908a.825.825,0,1,0,.584.242A.833.833,0,0,0,1232.967,515.908Z" transform="translate(-1228.047 -512.936)" fill="#fff"/>
      <path id="Path_148" data-name="Path 148" d="M1245.025,515.908a.826.826,0,1,0,.584.242A.833.833,0,0,0,1245.025,515.908Z" transform="translate(-1234.037 -512.936)" fill="#fff"/>
      <path id="Path_149" data-name="Path 149" d="M1267.757,581.858a.826.826,0,1,0,.584.242A.831.831,0,0,0,1267.757,581.858Z" transform="translate(-1245.331 -545.701)" fill="#7de495"/>
      <path id="Path_150" data-name="Path 150" d="M1240.465,530.186a.826.826,0,0,0-.826-.826h-7.264a.826.826,0,0,0-.825.826v7.265a.825.825,0,0,0,.825.825h7.264a.825.825,0,0,0,.826-.825Zm-1.651,6.439H1233.2v-5.614h5.614Z" transform="translate(-1227.753 -519.619)" fill="#d9e7ff"/>
      <path id="Path_151" data-name="Path 151" d="M1261.951,529.36h-7.264a.826.826,0,0,0-.826.826v7.265a.825.825,0,0,0,.826.825h7.264a.825.825,0,0,0,.825-.825v-7.265A.826.826,0,0,0,1261.951,529.36Zm-.826,7.265h-5.614v-5.614h5.614Z" transform="translate(-1238.837 -519.619)" fill="#fff4d9"/>
      <path id="Path_152" data-name="Path 152" d="M1277,538.275h7.264a.825.825,0,0,0,.826-.825v-7.265a.826.826,0,0,0-.826-.826H1277a.826.826,0,0,0-.825.826v7.265A.825.825,0,0,0,1277,538.275Zm.826-7.264h5.614v5.614h-5.614Z" transform="translate(-1249.922 -519.619)" fill="#dcffef"/>
      <path id="Path_153" data-name="Path 153" d="M1240.465,559.762V552.5a.825.825,0,0,0-.826-.825h-7.264a.825.825,0,0,0-.825.825v7.265a.825.825,0,0,0,.825.826h7.264A.825.825,0,0,0,1240.465,559.762Zm-1.651-.825H1233.2v-5.613h5.614Z" transform="translate(-1227.753 -530.704)" fill="#deffe3"/>
      <path id="Path_154" data-name="Path 154" d="M1261.951,551.672h-7.264a.826.826,0,0,0-.826.825v7.265a.826.826,0,0,0,.826.826h7.264a.825.825,0,0,0,.825-.826V552.5A.825.825,0,0,0,1261.951,551.672Zm-.826,7.264h-5.614v-5.613h5.614Z" transform="translate(-1238.837 -530.704)" fill="#d9e7ff"/>
      <path id="Path_155" data-name="Path 155" d="M1265.856,544.856l-1.354-.782a7.312,7.312,0,0,0,0-1.774l1.354-.781a.825.825,0,0,0,.3-1.128h0l-2.014-3.488a.825.825,0,0,0-1.128-.3l-.05.029V513.469A3.471,3.471,0,0,0,1259.5,510h-32.03a3.471,3.471,0,0,0-3.467,3.467v33.516a.825.825,0,0,0,.826.825h18.409a.825.825,0,1,0,0-1.651h-17.583v-1.981h6.274a.825.825,0,1,0,0-1.651h-6.274V517.6h35.662v19.54a7.15,7.15,0,0,0-1.19-.642v-1.562a.825.825,0,0,0-.825-.826h-.131v-2.312a.825.825,0,0,0-.826-.825h-7.264a.825.825,0,0,0-.825.825v5.283a.859.859,0,0,0,.009.114l-1.846,3.2a.826.826,0,0,0,.3,1.128h0l1.354.782a7.312,7.312,0,0,0,0,1.774l-1.354.782a.825.825,0,0,0-.3,1.127h0l2.014,3.487a.825.825,0,0,0,1.128.3l1.354-.782a7.173,7.173,0,0,0,1.537.889v1.562a.825.825,0,0,0,.825.825h4.027a.825.825,0,0,0,.825-.825V549.88a7.192,7.192,0,0,0,1.537-.888l1.354.781a.826.826,0,0,0,1.128-.3l2.014-3.488a.825.825,0,0,0-.3-1.127Zm-40.193-28.91h-.009v-2.477a1.818,1.818,0,0,1,1.816-1.816h32.03a1.818,1.818,0,0,1,1.817,1.816v2.477Zm31.856,16.675v1.486h-2.245a.825.825,0,0,0-.825.826v1.562a7.2,7.2,0,0,0-1.537.889l-1.007-.581v-4.181Zm5.268,9.418a5.669,5.669,0,0,1,0,2.3.826.826,0,0,0,.4.883l1.133.654-1.188,2.057-1.134-.655a.825.825,0,0,0-.963.1,5.573,5.573,0,0,1-1.988,1.149.826.826,0,0,0-.568.784v1.308H1256.1v-1.308a.826.826,0,0,0-.568-.784,5.57,5.57,0,0,1-1.988-1.149.825.825,0,0,0-.963-.1l-1.134.655-1.188-2.057,1.133-.654a.826.826,0,0,0,.4-.883,5.669,5.669,0,0,1,0-2.3.826.826,0,0,0-.4-.883l-1.133-.654,1.188-2.057,1.134.655a.826.826,0,0,0,.963-.1,5.579,5.579,0,0,1,1.988-1.149.826.826,0,0,0,.568-.784v-1.308h2.375v1.308a.825.825,0,0,0,.568.784,5.583,5.583,0,0,1,1.988,1.149.826.826,0,0,0,.963.1l1.134-.655,1.188,2.057-1.133.654a.826.826,0,0,0-.4.883Z" transform="translate(-1224.003 -510.002)" fill="#fff"/>
      <path id="Path_156" data-name="Path 156" d="M1286.479,568.563a3.718,3.718,0,1,0,3.718,3.718A3.723,3.723,0,0,0,1286.479,568.563Zm0,5.785a2.067,2.067,0,1,1,2.067-2.067A2.069,2.069,0,0,1,1286.479,574.348Z" transform="translate(-1253.195 -539.096)" fill="#fff"/>
      <path id="Path_157" data-name="Path 157" d="M1244.26,574.882a.825.825,0,1,0,.583-.242A.831.831,0,0,0,1244.26,574.882Z" transform="translate(-1233.947 -542.115)" fill="#ffd664"/>
    </g>
  </g>
</svg>
