<svg xmlns="http://www.w3.org/2000/svg" width="1607.16" height="584.546" viewBox="0 0 1607.16 584.546">
  <path id="Intersection_2" data-name="Intersection 2" d="M.011,1359.052S0,818.349,0,804.232c71.4.909,231.714,10.08,312.455,70.036,106.759,79.276,82.447,201.89,280.11,147.983,90.463-24.672,113.431,8.094,133.218,40.859,23.449,38.829,42.429,77.657,163.96,20.9,104.689-48.889,169.2-33.741,219.437-18.594,57.294,17.276,96.017,34.552,154.59-43.169,109.93-145.862,207.871-2.515,326.281-214.515,6.085-10.9,11.719-20.44,16.922-28.727.033,21.927.185,584.546.185,584.546Z" transform="translate(-0.002 -779.005)" fill="#fff"/>
</svg>
